<!-- Generator: Adobe Illustrator 22.0.1, SVG Export Plug-In  -->
<svg version="1.1"
	 xmlns="http://www.w3.org/2000/svg" xmlns:xlink="http://www.w3.org/1999/xlink" xmlns:a="http://ns.adobe.com/AdobeSVGViewerExtensions/3.0/"
	 x="0px" y="0px" width="159.773px" height="153.001px" viewBox="0 0 159.773 153.001"
	 style="enable-background:new 0 0 159.773 153.001;" xml:space="preserve">
<defs>
</defs>
<g>
	<g>
		<path d="M88.527,21.321c-0.948,7.466-5.778,14.015-11.02,19.176c-2.688,2.647-5.921,5.122-9.676,5.964
			c-1.852,0.415-3.908,0.453-5.765-0.002c-1.14-0.258-2.207-0.702-3.202-1.333c-2.116-0.873-2.259-2.147-0.431-3.822
			c0.523-3.046,2.032-3.378,4.528-0.998c1.497,2.134,1.75,4.193,0.758,6.177c-0.692,2.159-2.236,3.625-3.969,4.971
			c-2.579,2.003-5.593,3.523-8.45,5.084c-6.987,3.816-14.164,7.02-22.255,7.121c-1.929,0.024-1.934,3.024,0,3
			c7.129-0.09,13.672-2.374,19.994-5.538c5.285-2.645,12.087-5.562,15.796-10.405c2.625-3.426,3.59-8.534,0.628-12.062
			c-2.445-2.913-7.27-3.804-10.353-1.334c-3.478,2.786-2.045,6.855,0.905,9.41c3.733,3.233,9.309,3.713,13.878,2.266
			c10.817-3.424,20.245-16.757,21.632-27.677C91.769,19.411,88.767,19.428,88.527,21.321L88.527,21.321z"/>
	</g>
</g>
<g>
	<g>
		<path d="M67.819,82.121c-2.82,7.447-9.703,12.069-16.349,15.874c-6.888,3.943-14.335,6.905-22.044,8.79
			c-1.509,0.369-3.512,1.038-5.07,1.085c-2.292,0.94-3.621-0.226-3.989-3.495c0.684-0.535,1.369-1.071,2.053-1.606
			c1.075-0.834,2.26-1.474,3.556-1.918c4.268,2.33,5.049,4.403,2.341,6.22c-1.317,1.776-3.696,2.912-5.539,4.035
			c-6.865,4.184-14.154,7.525-21.748,10.147c-1.814,0.626-1.034,3.525,0.798,2.893c7.01-2.42,13.784-5.407,20.211-9.116
			c4.097-2.365,10.635-5.389,11.236-10.806c1.215-10.95-14.796-5.456-17.263,0.974c-4.634,12.081,22.228,2.18,25.723,0.789
			c11.109-4.421,24.479-11.192,28.976-23.067C71.397,81.112,68.498,80.33,67.819,82.121L67.819,82.121z"/>
	</g>
</g>
<g>
	<g>
		<path d="M157.003,51.877c-4.069,7.945-8.865,15.473-14.53,22.38c-5.097,6.215-10.86,12.764-17.903,16.786
			c-1.863,1.064-3.831,1.96-5.923,2.474c-1.243,0.333-2.509,0.517-3.799,0.55c-2.684,0.297-3.718-1.268-3.102-4.694
			c1.992-1.436,3.468-1.108,4.427,0.984c1.884,1.231,2.346,2.966,1.385,5.202c-0.94,3.147-3.845,5.118-6.521,6.6
			c-8.063,4.464-17.11,7.62-25.545,11.313c-1.764,0.773-0.239,3.358,1.514,2.59c8.043-3.522,16.306-6.747,24.182-10.627
			c4.449-2.191,9.065-5.608,9.661-10.937c0.468-4.18-2.515-9.064-7.135-9.008c-3.435,0.042-6.621,3.553-5.905,7.024
			c0.817,3.962,5.227,4.757,8.638,4.435c6.153-0.581,11.641-4.147,16.214-8.069c11.249-9.649,20.212-22.37,26.931-35.489
			C160.472,51.676,157.884,50.156,157.003,51.877L157.003,51.877z"/>
	</g>
</g>
<g>
	<g>
		<path d="M149.82,140.285c-5.509,4.957-11.917,8.198-19.152,9.782c-1.885,0.413-1.087,3.306,0.798,2.893
			c7.717-1.69,14.607-5.274,20.476-10.554C153.379,141.112,151.252,138.996,149.82,140.285L149.82,140.285z"/>
	</g>
</g>
<g>
	<g>
		<path d="M140.832,1.079c-1.107,5.291-5.506,9.421-10.951,9.891c-1.909,0.165-1.926,3.166,0,3
			c6.732-0.582,12.448-5.421,13.844-12.094C144.119-0.007,141.228-0.813,140.832,1.079L140.832,1.079z"/>
	</g>
</g>
<g>
	<g>
		<path d="M13.291,41.626c-3.548,2.644-7.343,4.841-11.402,6.601c-1.767,0.766-0.241,3.351,1.514,2.59
			c4.059-1.76,7.855-3.957,11.402-6.601C16.336,43.076,14.842,40.471,13.291,41.626L13.291,41.626z"/>
	</g>
</g>
</svg>